<?xml version="1.0" encoding="UTF-8" standalone="no"?>
<!-- Created with Inkscape (http://www.inkscape.org/) -->

<svg
   width="51.29987mm"
   height="56.544483mm"
   viewBox="0 0 51.299869 56.544483"
   version="1.1"
   id="svg1"
   inkscape:version="1.3 (0e150ed6c4, 2023-07-21)"
   sodipodi:docname="logo.svg"
   inkscape:export-filename="logo.png"
   inkscape:export-xdpi="74.269218"
   inkscape:export-ydpi="74.269218"
   xmlns:inkscape="http://www.inkscape.org/namespaces/inkscape"
   xmlns:sodipodi="http://sodipodi.sourceforge.net/DTD/sodipodi-0.dtd"
   xmlns:xlink="http://www.w3.org/1999/xlink"
   xmlns="http://www.w3.org/2000/svg"
   xmlns:svg="http://www.w3.org/2000/svg">
  <sodipodi:namedview
     id="namedview1"
     pagecolor="#ffffff"
     bordercolor="#000000"
     borderopacity="0.25"
     inkscape:showpageshadow="2"
     inkscape:pageopacity="0.0"
     inkscape:pagecheckerboard="0"
     inkscape:deskcolor="#d1d1d1"
     inkscape:document-units="mm"
     inkscape:zoom="2"
     inkscape:cx="94.75"
     inkscape:cy="156.25"
     inkscape:window-width="1920"
     inkscape:window-height="1151"
     inkscape:window-x="0"
     inkscape:window-y="24"
     inkscape:window-maximized="1"
     inkscape:current-layer="layer1" />
  <defs
     id="defs1">
    <linearGradient
       id="linearGradient7"
       inkscape:collect="always">
      <stop
         style="stop-color:#000000;stop-opacity:1;"
         offset="0"
         id="stop7" />
      <stop
         style="stop-color:#000000;stop-opacity:0;"
         offset="1"
         id="stop8" />
    </linearGradient>
    <linearGradient
       inkscape:collect="always"
       xlink:href="#linearGradient7"
       id="linearGradient8"
       x1="80.038864"
       y1="59.769302"
       x2="86.881065"
       y2="59.769302"
       gradientUnits="userSpaceOnUse" />
  </defs>
  <g
     inkscape:label="Layer 1"
     inkscape:groupmode="layer"
     id="layer1"
     transform="translate(-54.52096,-13.814912)">
    <path
       id="path6"
       style="fill:none;stroke:#131313;stroke-width:2.49;stroke-linecap:round;stroke-dasharray:none"
       d="M 68.20695,25.782953 C 43.931485,37.987934 58.840889,68.895952 81.664886,69.113358 94.317668,69.23388 104.57583,58.855787 104.57583,46.202431 c 0,-12.653356 -6.441941,-24.631744 -20.084837,-25.316691"
       sodipodi:nodetypes="cssc" />
    <g
       id="g5"
       transform="matrix(-1,0,0,1,158.78974,0.04496295)">
      <path
         style="fill:none;stroke:#000000;stroke-width:0.312999"
         d="m 71.920126,59.642141 c 0,0 4.110674,-33.176619 14.945202,-45.640172"
         id="path1"
         sodipodi:nodetypes="cc" />
      <path
         style="fill:#000000;fill-opacity:1;stroke:#000000;stroke-width:0.312999"
         d="m 72.287032,52.091705 c 0,0 -4.175601,-29.040124 14.768724,-38.174093 0,0 -8.552626,3.002856 -14.768724,38.174093 z"
         id="path2"
         sodipodi:nodetypes="ccc" />
      <path
         style="fill:#000000;fill-opacity:1;stroke:#000000;stroke-width:0.312999"
         d="m 87.055755,13.917612 c 0,0 -2.867665,7.598421 -1.399847,11.292882 1.467816,3.694462 -7.511954,17.222947 -7.511954,17.222947 l 5.159435,-5.226778 -6.756651,10.10788 3.87727,-3.675023 c 0,0 -5.664094,6.160141 -6.490168,8.469494 0.1356,-1.209961 3.255939,-21.748738 13.121915,-38.191402"
         id="path3"
         sodipodi:nodetypes="cscccccc" />
    </g>
    <ellipse
       style="fill:#000000;fill-opacity:1;stroke:#000000;stroke-width:0.312999"
       id="path4"
       cx="79.120537"
       cy="59.485096"
       rx="1.573293"
       ry="0.9639588" />
    <ellipse
       style="fill:#000000;fill-opacity:1;stroke:#000000;stroke-width:0.312999"
       id="path4-9"
       cx="71.185493"
       cy="39.419937"
       rx="1.573293"
       ry="0.9639588" />
    <ellipse
       style="fill:#000000;fill-opacity:1;stroke:#000000;stroke-width:0.312999"
       id="path4-3"
       cx="67.031578"
       cy="39.364716"
       rx="1.573293"
       ry="0.9639588" />
    <ellipse
       style="fill:#000000;fill-opacity:1;stroke:#000000;stroke-width:0.312999"
       id="path4-2"
       cx="64.299927"
       cy="41.677502"
       rx="1.573293"
       ry="0.9639588" />
    <ellipse
       style="fill:#000000;fill-opacity:1;stroke:#000000;stroke-width:0.312999"
       id="path4-7"
       cx="65.650803"
       cy="44.539337"
       rx="1.573293"
       ry="0.9639588" />
    <ellipse
       style="fill:#131313;fill-opacity:1;stroke:#131313;stroke-width:0.312999;stroke-opacity:1"
       id="path4-7-2"
       cx="69.70192"
       cy="45.161964"
       rx="1.573293"
       ry="0.9639588" />
    <ellipse
       style="fill:#484848;fill-opacity:1;stroke:#484848;stroke-width:0.312999;stroke-opacity:1"
       id="path4-7-9"
       cx="70.686737"
       cy="47.979416"
       rx="1.573293"
       ry="0.9639588" />
    <ellipse
       style="fill:#747474;fill-opacity:1;stroke:#747474;stroke-width:0.312999;stroke-opacity:1"
       id="path4-7-9-4"
       cx="67.514984"
       cy="49.912762"
       rx="1.573293"
       ry="0.9639588" />
    <ellipse
       style="fill:#919191;fill-opacity:1;stroke:#919191;stroke-width:0.312999;stroke-opacity:1"
       id="path4-7-9-6"
       cx="63.28595"
       cy="49.675213"
       rx="1.573293"
       ry="0.9639588" />
    <ellipse
       style="fill:#131313;fill-opacity:1;stroke:#131313;stroke-width:0.312999;stroke-opacity:1"
       id="path4-5"
       cx="75.069237"
       cy="58.038757"
       rx="1.573293"
       ry="0.9639588" />
    <ellipse
       style="fill:#484848;fill-opacity:1;stroke:#484848;stroke-width:0.312999;stroke-opacity:1"
       id="path4-5-2"
       cx="73.028351"
       cy="54.95916"
       rx="1.573293"
       ry="0.9639588" />
    <ellipse
       style="fill:#747474;fill-opacity:1;stroke:#747474;stroke-width:0.312999;stroke-opacity:1"
       id="path4-5-2-7"
       cx="74.888176"
       cy="52.320038"
       rx="1.573293"
       ry="0.9639588" />
    <ellipse
       style="fill:#ff379f;fill-opacity:1;stroke:#ff379f;stroke-width:0.312999;stroke-opacity:1"
       id="path4-5-2-7-6"
       cx="79.040649"
       cy="51.142338"
       rx="1.573293"
       ry="0.9639588" />
    <path
       style="fill:url(#linearGradient8);fill-opacity:1;stroke:none;stroke-width:0.0899999;stroke-linecap:round;stroke-dasharray:none;stroke-opacity:1"
       d="m 81.991352,58.982571 c -0.271926,-0.07786 -2.276487,-0.514655 -2.276487,-0.514655 l 0.423959,1.898748 c 0,0 1.286078,-0.772558 2.388531,-0.421651 1.384641,0.440726 4.338415,-0.301936 4.338415,-0.301936 0,0 -2.312508,0.191003 -3.024284,-0.140829 -0.711775,-0.331831 -1.578208,-0.441817 -1.850134,-0.519677 z"
       id="path7"
       sodipodi:nodetypes="zccsczz" />
  </g>
</svg>
